<?xml version="1.0" encoding="UTF-8" standalone="no"?>
<svg
   xmlns:dc="http://purl.org/dc/elements/1.1/"
   xmlns:cc="http://creativecommons.org/ns#"
   xmlns:rdf="http://www.w3.org/1999/02/22-rdf-syntax-ns#"
   xmlns:svg="http://www.w3.org/2000/svg"
   xmlns="http://www.w3.org/2000/svg"
   xmlns:sodipodi="http://sodipodi.sourceforge.net/DTD/sodipodi-0.dtd"
   xmlns:inkscape="http://www.inkscape.org/namespaces/inkscape"
   width="74.632454mm"
   height="22.225mm"
   viewBox="0 0 74.632454 22.225"
   version="1.1"
   id="svg8"
   sodipodi:docname="logo.svg"
   inkscape:version="1.0.2 (e86c870879, 2021-01-15)">
  <defs
     id="defs2" />
  <sodipodi:namedview
     id="base"
     pagecolor="#ffffff"
     bordercolor="#666666"
     borderopacity="1.0"
     inkscape:pageopacity="0.0"
     inkscape:pageshadow="2"
     inkscape:zoom="1"
     inkscape:cx="212.00001"
     inkscape:cy="143.00004"
     inkscape:document-units="mm"
     inkscape:current-layer="layer1"
     inkscape:document-rotation="0"
     showgrid="false"
     inkscape:window-width="1920"
     inkscape:window-height="1007"
     inkscape:window-x="0"
     inkscape:window-y="0"
     inkscape:window-maximized="1"
     fit-margin-top="0"
     fit-margin-left="0"
     fit-margin-right="0"
     fit-margin-bottom="0" />
  <metadata
     id="metadata5">
    <rdf:RDF>
      <cc:Work
         rdf:about="">
        <dc:format>image/svg+xml</dc:format>
        <dc:type
           rdf:resource="http://purl.org/dc/dcmitype/StillImage" />
        <dc:title></dc:title>
      </cc:Work>
    </rdf:RDF>
  </metadata>
  <g
     inkscape:label="Layer 1"
     inkscape:groupmode="layer"
     id="layer1"
     transform="translate(-49.741664,-110.33124)">
    <g
       aria-label="dictmaker"
       id="text871"
       style="font-style:normal;font-weight:normal;font-size:10.5833px;line-height:1.25;font-family:sans-serif;fill:#000000;fill-opacity:1;stroke:none;stroke-width:0.264583">
      <path
         d="m 77.982072,124.97352 q -0.721588,0 -1.274055,-0.36455 -0.552466,-0.36831 -0.864403,-1.03729 -0.311936,-0.67273 -0.311936,-1.58975 0,-0.9095 0.311936,-1.57847 0.311937,-0.66897 0.868162,-1.03353 0.556224,-0.36455 1.285329,-0.36455 0.563741,0 0.890711,0.18792 0.330728,0.18415 0.503609,0.42092 0.176639,0.23302 0.274354,0.38335 h 0.07517 v -2.84126 h 0.886952 v 7.69695 h -0.856886 v -0.88696 h -0.105232 q -0.09771,0.15785 -0.278112,0.39838 -0.180397,0.23677 -0.514884,0.42469 -0.334486,0.18415 -0.890711,0.18415 z m 0.120265,-0.79675 q 0.533675,0 0.901986,-0.27812 0.368311,-0.28187 0.559983,-0.77796 0.191672,-0.49985 0.191672,-1.15379 0,-0.64642 -0.187914,-1.13124 -0.187914,-0.48857 -0.556225,-0.75917 -0.368311,-0.27435 -0.909502,-0.27435 -0.563741,0 -0.939568,0.28938 -0.37207,0.28563 -0.559983,0.77797 -0.184156,0.48857 -0.184156,1.09741 0,0.61636 0.187914,1.11997 0.191672,0.49985 0.563741,0.79675 0.375827,0.29315 0.932052,0.29315 z"
         style="font-style:normal;font-variant:normal;font-weight:normal;font-stretch:normal;font-family:Inter;-inkscape-font-specification:Inter;stroke-width:0.264583"
         id="path889" />
      <path
         d="m 82.37172,124.85326 v -5.77271 h 0.886953 v 5.77271 z m 0.450993,-6.73483 q -0.259321,0 -0.447235,-0.17664 -0.184155,-0.17664 -0.184155,-0.42468 0,-0.24805 0.184155,-0.42469 0.187914,-0.17664 0.447235,-0.17664 0.259321,0 0.443476,0.17664 0.187914,0.17664 0.187914,0.42469 0,0.24804 -0.187914,0.42468 -0.184155,0.17664 -0.443476,0.17664 z"
         style="font-style:normal;font-variant:normal;font-weight:normal;font-stretch:normal;font-family:Inter;-inkscape-font-specification:Inter;stroke-width:0.264583"
         id="path891" />
      <path
         d="m 87.227401,124.97352 q -0.811787,0 -1.398078,-0.38334 -0.586291,-0.38335 -0.901986,-1.05608 -0.315695,-0.67273 -0.315695,-1.53713 0,-0.87944 0.323212,-1.55217 0.32697,-0.67649 0.909502,-1.05607 0.586291,-0.38335 1.368012,-0.38335 0.60884,0 1.097416,0.2255 0.488575,0.22549 0.800512,0.63139 0.311937,0.40589 0.387102,0.94708 h -0.886952 q -0.101474,-0.39462 -0.450993,-0.69904 -0.345761,-0.30817 -0.932052,-0.30817 -0.518642,0 -0.909502,0.27059 -0.387103,0.26684 -0.605082,0.75541 -0.214222,0.48482 -0.214222,1.13876 0,0.66897 0.210463,1.16507 0.214222,0.49609 0.601324,0.77044 0.390861,0.27436 0.917019,0.27436 0.345761,0 0.627632,-0.12027 0.28187,-0.12026 0.477301,-0.34576 0.19543,-0.2255 0.278112,-0.54119 h 0.886952 q -0.07516,0.51112 -0.372069,0.92078 -0.293145,0.40589 -0.777962,0.64642 -0.481059,0.23677 -1.119966,0.23677 z"
         style="font-style:normal;font-variant:normal;font-weight:normal;font-stretch:normal;font-family:Inter;-inkscape-font-specification:Inter;stroke-width:0.264583"
         id="path893" />
      <path
         d="m 93.300755,119.08055 v 0.75165 h -2.991586 v -0.75165 z m -2.119666,-1.38305 h 0.886953 v 5.50212 q 0,0.37582 0.10899,0.56374 0.112748,0.18415 0.285628,0.24804 0.176639,0.0601 0.372069,0.0601 0.146573,0 0.24053,-0.015 0.09396,-0.0188 0.150331,-0.0301 l 0.180397,0.79675 q -0.0902,0.0338 -0.251804,0.0677 -0.161606,0.0376 -0.409652,0.0376 -0.375827,0 -0.736622,-0.1616 -0.357036,-0.16161 -0.593807,-0.49234 -0.233013,-0.33073 -0.233013,-0.83433 z"
         style="font-style:normal;font-variant:normal;font-weight:normal;font-stretch:normal;font-family:Inter;-inkscape-font-specification:Inter;stroke-width:0.264583"
         id="path895" />
      <path
         d="m 94.638697,124.85326 v -5.77271 h 0.856887 v 0.90198 h 0.07517 q 0.180397,-0.46226 0.582533,-0.71783 0.402135,-0.25932 0.965876,-0.25932 0.571258,0 0.950843,0.25932 0.383344,0.25557 0.597566,0.71783 h 0.06013 q 0.221739,-0.44723 0.665215,-0.71031 0.443476,-0.26684 1.063596,-0.26684 0.7742,0 1.26653,0.48482 0.49234,0.48106 0.49234,1.49955 v 3.86351 h -0.88696 v -3.86351 q 0,-0.63891 -0.34951,-0.91326 -0.34952,-0.27435 -0.82307,-0.27435 -0.608837,0 -0.943323,0.36831 -0.334487,0.36455 -0.334487,0.92453 v 3.75828 h -0.901985 v -3.95371 q 0,-0.49233 -0.319454,-0.79299 -0.319453,-0.30442 -0.823062,-0.30442 -0.345761,0 -0.646423,0.18415 -0.296904,0.18416 -0.481059,0.51113 -0.180397,0.32321 -0.180397,0.74789 v 3.60795 z"
         style="font-style:normal;font-variant:normal;font-weight:normal;font-stretch:normal;font-family:Inter;-inkscape-font-specification:Inter;stroke-width:0.264583"
         id="path897" />
      <path
         d="m 105.53769,124.98855 q -0.54871,0 -0.99594,-0.2067 -0.44724,-0.21046 -0.71032,-0.60508 -0.26308,-0.39838 -0.26308,-0.96212 0,-0.49609 0.19543,-0.80427 0.19543,-0.31194 0.5224,-0.48858 0.32697,-0.17664 0.72159,-0.26308 0.39838,-0.0902 0.80052,-0.14281 0.52615,-0.0677 0.85312,-0.10147 0.33073,-0.0376 0.48106,-0.12403 0.15409,-0.0864 0.15409,-0.30066 v -0.0301 q 0,-0.55622 -0.30442,-0.8644 -0.30066,-0.30818 -0.91326,-0.30818 -0.63515,0 -0.99594,0.27812 -0.3608,0.27811 -0.50737,0.5938 l -0.84185,-0.30066 q 0.22549,-0.52616 0.60132,-0.8193 0.37959,-0.29691 0.82682,-0.41341 0.451,-0.12027 0.88695,-0.12027 0.27812,0 0.63891,0.0677 0.36455,0.0639 0.7028,0.26684 0.342,0.20295 0.5675,0.6126 0.22549,0.40965 0.22549,1.09741 v 3.80338 h -0.88695 v -0.78172 h -0.0451 q -0.0902,0.18791 -0.30066,0.40213 -0.21046,0.21422 -0.55998,0.36455 -0.34952,0.15033 -0.85313,0.15033 z m 0.1353,-0.79675 q 0.52616,0 0.88695,-0.20671 0.36455,-0.2067 0.54871,-0.53367 0.18791,-0.32697 0.18791,-0.68776 v -0.81179 q -0.0564,0.0677 -0.24804,0.12402 -0.18792,0.0526 -0.43596,0.094 -0.24429,0.0376 -0.4773,0.0677 -0.22926,0.0263 -0.37207,0.0451 -0.34577,0.0451 -0.64643,0.14657 -0.2969,0.0977 -0.48106,0.2969 -0.18039,0.19543 -0.18039,0.53368 0,0.46227 0.342,0.69904 0.34576,0.23301 0.87568,0.23301 z"
         style="font-style:normal;font-variant:normal;font-weight:normal;font-stretch:normal;font-family:Inter;-inkscape-font-specification:Inter;stroke-width:0.264583"
         id="path899" />
      <path
         d="m 110.63389,122.74862 -0.015,-1.09741 h 0.1804 l 2.52556,-2.57066 h 1.09741 l -2.69092,2.72099 h -0.0752 z m -0.82682,2.10464 v -7.69695 h 0.88695 v 7.69695 z m 3.66808,0 -2.25497,-2.85629 0.63139,-0.61636 2.75106,3.47265 z"
         style="font-style:normal;font-variant:normal;font-weight:normal;font-stretch:normal;font-family:Inter;-inkscape-font-specification:Inter;stroke-width:0.264583"
         id="path901" />
      <path
         d="m 117.74453,124.97352 q -0.83434,0 -1.43942,-0.36831 -0.60132,-0.37207 -0.92829,-1.03728 -0.32322,-0.66898 -0.32322,-1.55593 0,-0.88695 0.32322,-1.56344 0.32697,-0.68025 0.9095,-1.05983 0.58629,-0.38335 1.36801,-0.38335 0.45099,0 0.89071,0.15033 0.43972,0.15033 0.80051,0.48858 0.3608,0.33448 0.57502,0.88695 0.21422,0.55247 0.21422,1.3605 v 0.37582 h -4.4498 v -0.76668 h 3.54782 q 0,-0.48858 -0.19544,-0.87192 -0.19167,-0.38335 -0.5487,-0.60509 -0.35328,-0.22173 -0.83434,-0.22173 -0.52992,0 -0.91702,0.26308 -0.38334,0.25932 -0.59005,0.67648 -0.2067,0.41717 -0.2067,0.89447 v 0.51113 q 0,0.65394 0.22549,1.10869 0.22926,0.45099 0.63515,0.68776 0.4059,0.23302 0.94333,0.23302 0.34952,0 0.63139,-0.0977 0.28563,-0.10147 0.49233,-0.30066 0.20671,-0.20295 0.31946,-0.50361 l 0.85688,0.24053 q -0.1353,0.43596 -0.45475,0.76669 -0.31945,0.32697 -0.78924,0.51112 -0.46978,0.1804 -1.05607,0.1804 z"
         style="font-style:normal;font-variant:normal;font-weight:normal;font-stretch:normal;font-family:Inter;-inkscape-font-specification:Inter;stroke-width:0.264583"
         id="path903" />
      <path
         d="m 121.48777,124.85326 v -5.77271 h 0.85688 v 0.87192 h 0.0601 q 0.15784,-0.42845 0.57125,-0.69528 0.41341,-0.26684 0.93206,-0.26684 0.0977,0 0.24428,0.004 0.14658,0.004 0.22174,0.0113 v 0.90199 q -0.0451,-0.0113 -0.2067,-0.0338 -0.15785,-0.0263 -0.33449,-0.0263 -0.42093,0 -0.75166,0.17663 -0.32696,0.17288 -0.51864,0.48106 -0.18791,0.30442 -0.18791,0.69528 v 3.65305 z"
         style="font-style:normal;font-variant:normal;font-weight:normal;font-stretch:normal;font-family:Inter;-inkscape-font-specification:Inter;stroke-width:0.264583"
         id="path905" />
    </g>
    <circle
       style="fill:#0000ff;stroke:none;stroke-width:0.529167"
       id="path913"
       cx="60.854164"
       cy="121.44374"
       r="11.1125"
       inkscape:export-filename="/home/kailash/Desktop/dirmaker-admin/frontend/src/assets/favicon.png"
       inkscape:export-xdpi="73.14286"
       inkscape:export-ydpi="73.14286" />
    <g
       aria-label="അ"
       id="text911"
       style="font-style:normal;font-weight:normal;font-size:14.1111px;line-height:1.25;font-family:sans-serif;fill:#ffffff;fill-opacity:1;stroke:none;stroke-width:0.348724">
      <path
         d="m 68.261115,121.96051 q 0,1.15755 -0.599446,1.97748 -0.599446,0.81993 -1.646754,0.81993 -1.047308,0 -1.681206,-0.70969 -0.627006,-0.71658 -0.627006,-1.7501 0,-1.03353 0.633897,-1.80523 0.640787,-0.77859 1.646754,-0.77859 0.310058,0 0.599446,0.0827 -0.723469,-0.86128 -1.998154,-0.86128 -0.813042,0 -1.357366,0.46165 -0.544325,0.46164 -0.544325,1.25401 v 3.96186 H 61.75678 v -3.94808 q 0,-0.86816 -0.585666,-1.29535 -0.585666,-0.42719 -1.48828,-0.42719 h -0.192925 q 0.303168,0.16536 0.544325,0.59255 0.248046,0.4203 0.248046,0.82682 0,0.9853 -0.875053,1.24024 0.420301,0.11713 0.689018,0.53054 0.275608,0.40652 0.275608,0.90262 0,0.76481 -0.578776,1.24712 -0.578776,0.47542 -1.371147,0.47542 -1.198892,0 -1.887911,-0.88194 -0.682128,-0.88195 -0.682128,-2.14285 0,-1.69499 1.391817,-2.79052 h -0.358289 q -1.143771,0 -1.874131,0.79237 -0.723469,0.79237 -0.723469,1.94992 0,1.66742 1.309135,2.48736 l -0.613226,0.59944 q -1.536512,-1.08176 -1.536512,-3.10058 0,-1.46072 1.040418,-2.50803 1.040418,-1.04731 2.514918,-1.04731 0.861273,0 1.336696,0.26183 0.489203,-0.26183 1.371147,-0.26183 1.881021,0 2.542478,0.95774 0.578776,-0.95774 2.418456,-0.95774 1.522731,0 2.556258,1.15755 1.033528,1.15756 1.033528,2.68718 z m -3.71381,0.28249 q 0,0.68902 0.406521,1.20579 0.406521,0.51676 1.081759,0.51676 0.675238,0 1.026638,-0.51676 0.35829,-0.51677 0.35829,-1.24713 0,-0.73036 -0.323839,-1.41938 -0.427192,-0.26871 -1.09554,-0.26871 -0.668348,0 -1.061088,0.52365 -0.392741,0.51677 -0.392741,1.20578 z m -5.105627,0.72347 q 0,-0.9095 -1.226453,-0.9095 h -0.489204 v -0.70969 h 0.489204 q 0.482313,0 0.813041,-0.25494 0.330729,-0.26182 0.330729,-0.73036 0,-0.67523 -1.019747,-1.15066 -1.660535,0.79237 -1.660535,2.54248 0,0.85438 0.420301,1.49517 0.420302,0.6339 1.226454,0.6339 0.40652,0 0.75792,-0.25494 0.35829,-0.26183 0.35829,-0.66146 z"
         style="font-style:normal;font-variant:normal;font-weight:normal;font-stretch:normal;font-size:14.1111px;font-family:Meera;-inkscape-font-specification:Meera;fill:#ffffff;stroke-width:0.348724"
         id="path908" />
    </g>
  </g>
</svg>
