<?xml version="1.0" encoding="UTF-8" standalone="no"?>
<svg
   width="182.01979"
   height="39.225044"
   viewBox="0 0 48.160001 10.378404"
   version="1.1"
   id="svg3"
   sodipodi:docname="logo.svg"
   inkscape:version="1.4.2 (ebf0e940d0, 2025-05-08)"
   xmlns:inkscape="http://www.inkscape.org/namespaces/inkscape"
   xmlns:sodipodi="http://sodipodi.sourceforge.net/DTD/sodipodi-0.dtd"
   xmlns="http://www.w3.org/2000/svg"
   xmlns:svg="http://www.w3.org/2000/svg">
  <sodipodi:namedview
     id="namedview3"
     pagecolor="#ffffff"
     bordercolor="#000000"
     borderopacity="0.25"
     inkscape:showpageshadow="2"
     inkscape:pageopacity="0.0"
     inkscape:pagecheckerboard="0"
     inkscape:deskcolor="#d1d1d1"
     inkscape:zoom="8"
     inkscape:cx="36.5"
     inkscape:cy="41.5"
     inkscape:window-width="2560"
     inkscape:window-height="1367"
     inkscape:window-x="0"
     inkscape:window-y="0"
     inkscape:window-maximized="1"
     inkscape:current-layer="g3" />
  <g
     fill="#333333"
     id="g3"
     transform="translate(-11.720028,-17.528871)">
    <text
       xml:space="preserve"
       style="font-weight:bold;font-size:5.79197px;font-family:'Cooper*';-inkscape-font-specification:'Cooper* Bold';text-align:start;letter-spacing:0px;writing-mode:lr-tb;direction:ltr;text-anchor:start;fill:#222222;fill-opacity:1;stroke-width:0.965328"
       x="25.12821"
       y="25.71213"
       id="text3"><tspan
         sodipodi:role="line"
         id="tspan3"
         style="font-style:normal;font-variant:normal;font-weight:normal;font-stretch:normal;font-family:'FFF Forward';-inkscape-font-specification:'FFF Forward';letter-spacing:0px;fill:#222222;fill-opacity:1;stroke-width:0.965328"
         x="25.12821"
         y="25.71213">dictpress</tspan></text>
    <rect
       width="10.726127"
       height="8.885601"
       x="11.742116"
       y="18.859184"
       rx="1.8477073"
       paint-order="normal"
       stroke-width="0.614107"
       id="rect1-1"
       style="fill:#222222;fill-opacity:1;stroke:none" />
    <rect
       width="9.4605751"
       height="8.0354624"
       x="12.076462"
       y="17.885296"
       rx="1.8477073"
       paint-order="normal"
       stroke-width="0.712867"
       id="rect2-5"
       style="fill:#ffcc00;stroke:#222222;stroke-opacity:1" />
  </g>
  <defs
     id="defs3">
    <path
       id="B"
       d="M 56.674,4.148 55.877,4.373 Q 55.802,4.174 55.655,3.986 55.512,3.794 55.264,3.67 55.016,3.546 54.629,3.546 q -0.53,0 -0.883,0.244 -0.35,0.241 -0.35,0.613 0,0.331 0.241,0.522 0.241,0.192 0.752,0.319 l 0.857,0.21 q 0.774,0.188 1.154,0.575 0.38,0.383 0.38,0.988 0,0.496 -0.286,0.887 -0.282,0.391 -0.789,0.616 -0.507,0.225 -1.18,0.225 -0.883,0 -1.462,-0.383 -0.579,-0.383 -0.733,-1.12 l 0.842,-0.21 q 0.12,0.466 0.455,0.699 0.338,0.233 0.883,0.233 0.62,0 0.985,-0.263 0.368,-0.267 0.368,-0.639 0,-0.301 -0.21,-0.504 Q 55.443,6.351 55.007,6.25 L 54.045,6.025 Q 53.252,5.837 52.88,5.442 52.512,5.044 52.512,4.446 q 0,-0.489 0.274,-0.864 0.278,-0.376 0.755,-0.59 0.481,-0.214 1.09,-0.214 0.857,0 1.345,0.376 0.492,0.376 0.699,0.992 z" />
  </defs>
</svg>
