<svg xmlns="http://www.w3.org/2000/svg" width="64" height="64" xmlns:v="https://vecta.io/nano"><path fill="#aaa" d="M48 0c-4.285 0-8.298 1.654-11.308 4.692L24.678 16.678c-3.037 3.01-4.692 7.051-4.692 11.308 0 5.478 2.766 10.495 7.376 13.478.705.461 1.519.569 2.278.407a3.03 3.03 0 0 0 1.871-1.302c.434-.705.569-1.519.407-2.251-.163-.759-.624-1.437-1.302-1.898-2.902-1.844-4.61-4.99-4.61-8.407a9.95 9.95 0 0 1 2.929-7.078L40.922 8.949C42.82 7.051 45.315 6.02 48 6.02a10.02 10.02 0 0 1 10.007 10.007 9.95 9.95 0 0 1-2.929 7.078L49.383 28.8a3.06 3.06 0 0 0-.895 2.169c0 .759.298 1.492.895 2.061.597.597 1.356.868 2.115.868s1.546-.298 2.115-.868l5.695-5.695A15.94 15.94 0 0 0 64 16c0-8.814-7.186-16-16-16zM36.61 22.536c-.705-.461-1.519-.569-2.278-.407a3.03 3.03 0 0 0-1.871 1.302c-.434.705-.569 1.519-.407 2.251.163.759.624 1.437 1.302 1.898 2.902 1.844 4.61 4.99 4.61 8.407a9.95 9.95 0 0 1-2.929 7.078L23.051 55.078c-1.898 1.898-4.393 2.929-7.078 2.929A10.02 10.02 0 0 1 5.966 48a9.95 9.95 0 0 1 2.929-7.078l5.695-5.695a3.06 3.06 0 0 0 .895-2.169c0-.732-.298-1.492-.895-2.061-.597-.597-1.356-.868-2.115-.868s-1.546.298-2.115.868l-5.695 5.695A15.87 15.87 0 0 0 0 48c0 8.814 7.186 16 16 16 4.285 0 8.298-1.654 11.308-4.692l12.014-11.986c3.037-3.01 4.692-7.051 4.692-11.308-.027-5.478-2.766-10.522-7.403-13.478z"/></svg>