<svg xmlns="http://www.w3.org/2000/svg" width="244.163" height="51.659" viewBox="0 0 64.601 13.668" xmlns:v="https://vecta.io/nano"><path d="M0 10.573V.262h3.045q1.367 0 2.422.609Q6.53 1.48 7.11 2.599q.581 1.119.581 2.564v.517q0 1.466-.588 2.578-.581 1.112-1.664 1.714-1.076.602-2.472.602zm1.792-8.867v7.436H2.96q1.409 0 2.16-.878.758-.885.772-2.535v-.574q0-1.678-.729-2.564-.729-.885-2.117-.885zm9.348 8.867H9.419V2.91h1.721zM9.313.92q0-.397.248-.659Q9.816 0 10.283 0q.467 0 .722.262.255.262.255.659 0 .389-.255.652-.255.255-.722.255-.467 0-.722-.255-.248-.262-.248-.652zm6.848 8.421q.644 0 1.069-.375.425-.375.453-.928h1.622q-.028.715-.446 1.338-.418.616-1.133.977-.715.361-1.544.361-1.608 0-2.549-1.041-.942-1.041-.942-2.875v-.177q0-1.749.935-2.797.935-1.055 2.549-1.055 1.367 0 2.224.8.864.793.906 2.089h-1.622q-.028-.659-.453-1.084-.418-.425-1.069-.425-.836 0-1.289.609-.453.602-.46 1.834v.276q0 1.246.446 1.863.453.609 1.303.609zm6.601-8.293V2.91h1.353v1.275h-1.353v4.277q0 .439.17.637.177.191.623.191.297 0 .602-.071v1.331q-.588.163-1.133.163-1.983 0-1.983-2.188v-4.34H19.78V2.91h1.261V1.048zm4.497 9.525h-1.721V2.91h1.721zM25.431.92q0-.397.248-.659.255-.262.722-.262.467 0 .722.262.255.262.255.659 0 .389-.255.652-.255.255-.722.255-.467 0-.722-.255-.248-.262-.248-.652zm3.378 5.751q0-1.126.446-2.025.446-.906 1.254-1.388.807-.489 1.855-.489 1.551 0 2.514.999.97.999 1.048 2.649l.007.404q0 1.133-.439 2.025-.432.892-1.246 1.381-.807.489-1.87.489-1.622 0-2.599-1.076-.97-1.084-.97-2.882zm1.721.149q0 1.183.489 1.855.489.666 1.36.666.871 0 1.353-.68.489-.68.489-1.99 0-1.161-.503-1.841-.496-.68-1.353-.68-.843 0-1.338.673-.496.666-.496 1.997zm8.456-3.91l.05.885q.85-1.027 2.231-1.027 2.394 0 2.436 2.741v5.064h-1.721V5.609q0-.729-.319-1.076-.312-.354-1.027-.354-1.041 0-1.551.942v5.453h-1.721V2.91zm11.048 7.663q-.113-.22-.198-.715-.822.857-2.011.857-1.154 0-1.884-.659-.729-.659-.729-1.629 0-1.225.906-1.877.914-.659 2.606-.659h1.055v-.503q0-.595-.333-.949-.333-.361-1.013-.361-.588 0-.963.297-.375.29-.375.744h-1.721q0-.63.418-1.176.418-.552 1.133-.864.722-.312 1.608-.312 1.346 0 2.146.68.8.673.822 1.898v3.456q0 1.034.29 1.65v.12zm-1.891-1.239q.51 0 .956-.248.453-.248.68-.666V6.975h-.928q-.956 0-1.438.333-.482.333-.482.942 0 .496.326.793.333.29.885.29zm9.171-4.851q-.34-.057-.701-.057-1.183 0-1.593.906v5.241h-1.721V2.91h1.643l.042.857q.623-.999 1.728-.999.368 0 .609.099zm3.895 3.626l1.558-5.198h1.834l-3.045 8.824q-.701 1.933-2.38 1.933-.375 0-.829-.127V12.21l.326.021q.652 0 .977-.241.333-.234.524-.793l.248-.659-2.691-7.627h1.855z"/></svg>