<svg xmlns="http://www.w3.org/2000/svg" width="172.74" height="34.927" viewBox="0 0 45.704 9.241" xmlns:v="https://vecta.io/nano"><path d="M2.198 7.336q-.664 0-1.159-.332-.496-.332-.77-.928Q0 5.479 0 4.685q0-.784.274-1.376.279-.597.77-.928.496-.337 1.145-.337.332 0 .611.091.279.087.5.265.221.178.385.452h.005V.062h1.414V7.23H3.709v-.779h-.005q-.149.293-.375.495-.221.197-.51.293-.289.096-.621.096zm.366-1.155q.361 0 .625-.183.269-.188.419-.524.149-.337.149-.789 0-.457-.149-.789-.149-.337-.419-.52-.265-.188-.625-.188-.342 0-.597.178-.255.178-.399.51-.14.332-.14.808 0 .476.14.813.144.332.399.51.255.173.597.173zM6.109 7.23V2.15h1.419v5.08zm.707-5.72q-.351 0-.582-.212-.231-.216-.231-.544 0-.327.231-.539Q6.465 0 6.812 0q.351 0 .582.216.231.212.231.539 0 .327-.231.544-.231.212-.577.212zm4.041 5.835q-.76 0-1.337-.332-.572-.337-.895-.933-.318-.601-.318-1.385 0-.789.318-1.385.322-.601.895-.938.577-.337 1.337-.337.5 0 .924.149.423.144.736.414.318.269.505.64.188.366.221.813h-1.371q-.029-.197-.111-.356-.077-.159-.202-.274-.125-.115-.298-.178-.168-.062-.385-.062-.356 0-.611.188-.255.183-.394.524-.135.337-.135.803 0 .462.135.799.14.337.394.524.255.183.611.183.216 0 .385-.062.168-.062.289-.178.125-.115.202-.274.077-.164.111-.366h1.381q-.024.443-.212.813-.183.366-.5.64-.318.274-.746.423-.423.149-.928.149zm6.062-5.196v1.111h-3.334V2.15zM14.461.764h1.419v4.897q0 .255.101.356.106.101.394.101.12 0 .284 0 .168 0 .26 0V7.23q-.13 0-.361 0-.231 0-.467 0-.837 0-1.236-.327-.394-.327-.394-1.02zm3.17 6.466V2.15h1.419v5.08zm.707-5.72q-.351 0-.582-.212-.231-.216-.231-.544 0-.327.231-.539.231-.216.577-.216.351 0 .582.216.231.212.231.539 0 .327-.231.544-.231.212-.577.212zm4.07 5.835q-.765 0-1.347-.332-.582-.332-.909-.928-.322-.597-.322-1.39 0-.799.322-1.395.327-.597.909-.928.582-.337 1.347-.337.775 0 1.352.337.582.332.904.928.327.597.327 1.395 0 .794-.327 1.39-.322.597-.904.928-.577.332-1.352.332zm0-1.15q.346 0 .606-.178.26-.183.404-.52.144-.337.144-.803 0-.476-.144-.813-.144-.337-.404-.515-.26-.183-.606-.183-.342 0-.601.183-.26.178-.404.515-.144.337-.144.813 0 .471.144.808.144.332.404.515.26.178.601.178zm4.782-1.79V7.23h-1.419V2.15h1.395v1.323h-.241q.241-.673.688-1.049.447-.38 1.14-.38.544 0 .943.236.399.231.616.678.221.447.221 1.092v3.18h-1.414V4.31q0-.51-.245-.775-.241-.269-.688-.269-.293 0-.52.12-.226.12-.351.375-.125.25-.125.645zm5.903 2.91q-.505 0-.9-.168-.394-.168-.621-.505-.226-.342-.226-.847 0-.428.159-.712.159-.289.433-.462.279-.178.635-.269.361-.091.755-.125.467-.048.741-.091.274-.043.394-.125.12-.082.12-.245v-.034q0-.188-.101-.327-.101-.144-.289-.226-.183-.082-.443-.082-.26 0-.462.082-.197.082-.313.231-.115.149-.135.346H31.51q.034-.524.308-.909.279-.385.779-.592.5-.212 1.198-.212.52 0 .928.12.409.115.688.342.284.226.428.548.144.322.144.731V7.23h-1.385v-.717h-.019q-.135.25-.332.428-.197.178-.481.279-.284.096-.674.096zm.394-.986q.342 0 .587-.125.25-.125.385-.342.135-.216.135-.491v-.51q-.063.034-.164.067-.101.029-.236.058-.135.024-.293.053-.159.029-.327.053-.245.038-.443.12-.197.077-.313.212-.115.13-.115.332 0 .178.096.308.096.13.274.197.178.067.414.067zm3.497.9V2.15h1.366v.866h.014q.14-.457.438-.678.298-.221.803-.221.125 0 .226.005.106 0 .192.005v1.207q-.077-.005-.255-.014-.173-.01-.356-.01-.289 0-.52.135-.231.13-.361.39-.13.26-.13.645V7.23zm3.942 2.011V8.12h.645q.173 0 .279-.053.106-.053.178-.173.077-.115.144-.313l.14-.37-1.953-5.061h1.487l.851 2.511q.144.443.279.895.135.447.26.9h-.394q.12-.452.255-.9.135-.452.279-.895l.856-2.511h1.472l-2.237 5.864q-.159.423-.385.693-.221.274-.524.404-.298.13-.693.13-.231 0-.471 0-.236 0-.467 0z" fill="#1a1a1a"/></svg>