<svg xmlns="http://www.w3.org/2000/svg" width="499.366" height="93.967" viewBox="0 0 132.124 24.862" xmlns:v="https://vecta.io/nano"><path d="M.026.259l.026.597c.597.052 1.22.285 1.739.753v15.935L0 17.959v.441h7.396c6.488 0 10.744-2.777 10.744-9.551 0-5.891-3.348-8.616-9.732-8.616zm7.63 17.492c-.753 0-1.35-.13-1.843-.389V.96h.285c4.879 0 7.111 2.595 7.111 8.175 0 5.372-2.05 8.616-5.554 8.616zM23.461 3.893a1.96 1.96 0 0 0 1.946-1.946C25.407.856 24.525 0 23.461 0s-1.946.856-1.946 1.946a1.96 1.96 0 0 0 1.946 1.946zm3.555 13.988c-.649 0-1.142-.285-1.427-.779V6.384l-.13-.13c-1.116.208-3.088.363-4.957.389v.415c.545 0 1.038.156 1.375.441v10.225l-1.427.311v.363c1.998-.13 4.62-.156 6.592 0zm7.578.805c3.426 0 5.632-3.01 5.632-3.01l-.182-.182s-1.038.934-2.777.96c-2.647 0-4.49-2.543-4.49-6.436 0-1.92.337-3.4 1.791-3.452.986-.026 2.31.675 2.31 2.336 0 .337-.078.753-.26 1.272 1.92 1.22 3.374.234 3.374-1.272 0-1.791-1.972-2.699-4.36-2.699-4.282 0-6.748 2.855-6.748 6.488 0 3.711 2.699 5.995 5.71 5.995zm15.754-2.647s-.779.597-1.479.597c-1.09 0-1.479-.908-1.479-2.621v-6.93h2.362v-.623l-2.362-.208V2.777l-.493-.156c-1.324 2.154-2.595 3.244-4.438 3.841v.623h1.064v7.578c0 2.777.934 4.023 2.933 4.023 1.453 0 2.725-.753 4.1-2.44zm5.008-12.146a1.96 1.96 0 0 0 1.946-1.946C57.303.856 56.42 0 55.356 0S53.41.856 53.41 1.946a1.96 1.96 0 0 0 1.946 1.946zm3.555 13.988c-.649 0-1.142-.285-1.427-.779V6.384l-.13-.13c-1.116.208-3.088.363-4.957.389v.415c.545 0 1.038.156 1.375.441v10.225l-1.427.311v.363c1.998-.13 4.62-.156 6.592 0zm7.89.805c4.36 0 7.137-2.933 7.137-6.8 0-3.53-2.284-5.71-6.021-5.71-4.36 0-7.137 2.933-7.137 6.8 0 3.53 2.284 5.71 6.021 5.71zm1.298-.363c-2.05 0-3.581-4.749-3.478-8.071.078-1.946.727-3.685 1.972-3.685 2.05 0 3.581 4.749 3.478 8.071-.078 1.946-.727 3.685-1.972 3.685zm22.527-.442c-.675 0-1.168-.285-1.453-.779V10.64c0-2.673-.856-4.438-3.166-4.438-2.673 0-4.516 2.362-4.516 2.362l.182.234s.882-.779 2.076-.779c1.168 0 1.739.727 1.739 3.555v6.151l-1.427.311v.363c1.998-.13 4.62-.156 6.592 0zM80.997 6.358l-.13-.13c-1.116.208-3.088.363-4.957.389v.415c.545.026 1.038.182 1.401.467v10.225l-1.427.311v.363c1.998-.13 4.62-.156 6.592 0l-.026-.519c-.675 0-1.168-.285-1.453-.779zm23.695 10.381c-.649.545-1.635.623-1.557-1.687l.104-3.789c.13-3.607-.779-5.061-4.723-5.061-2.855 0-5.242.882-5.242 2.725 0 1.453 1.531 2.699 3.322 1.22-1.012-2.465 0-3.633 1.09-3.633 1.583 0 1.869 2.388 1.869 5.216-4.697.078-7.111 1.272-7.111 3.633 0 1.817 1.375 3.322 3.348 3.322 1.142 0 2.206-.493 3.478-1.791l-.13-.285s-.545.545-1.272.545c-.986.026-1.998-.908-1.998-2.388 0-1.583 1.246-2.569 3.659-2.673v.026l-.052 3.919c-.026 1.765 1.246 2.673 2.595 2.673 1.038 0 1.92-.467 2.829-1.739zM115.67 6.151c-1.765 0-2.933 1.869-3.374 4.36l.234.052c.26-1.324.856-1.998 1.272-2.18.753-.363 1.401.675.856 2.05.285.13.649.182.934.182 1.401 0 2.258-1.116 2.258-2.258s-.856-2.206-2.18-2.206zm-3.711.208l-.13-.13c-1.116.208-3.088.363-4.957.389v.415c.571.026 1.064.182 1.401.467v10.225l-1.427.311v.363c1.998-.13 4.62-.156 6.592 0l-.026-.519c-.649 0-1.142-.285-1.453-.779zm20.165.103c-1.557.13-3.114.13-4.671.026l.052.467c1.427.208 2.024 1.375 1.35 3.114L126.907 15l-3.452-7.838 1.35-.337v-.363c-1.972.104-4.542.104-6.41 0l.026.519c.727.13.96.337 1.765 2.024l4.49 9.499h.779l-.493 1.142c-.753 1.687-1.635 2.491-2.829 2.491-1.505 0-2.076-1.194-2.076-1.194-1.505 2.699.26 3.919 1.557 3.919s2.18-1.194 3.841-5.035l.571-1.324 4.645-11.237 1.401-.389z"/></svg>