<?xml version="1.0" encoding="UTF-8" standalone="no"?>
<!-- Generator: Adobe Illustrator 19.0.0, SVG Export Plug-In . SVG Version: 6.00 Build 0)  -->

<svg
   xmlns:dc="http://purl.org/dc/elements/1.1/"
   xmlns:cc="http://creativecommons.org/ns#"
   xmlns:rdf="http://www.w3.org/1999/02/22-rdf-syntax-ns#"
   xmlns:svg="http://www.w3.org/2000/svg"
   xmlns="http://www.w3.org/2000/svg"
   xmlns:sodipodi="http://sodipodi.sourceforge.net/DTD/sodipodi-0.dtd"
   xmlns:inkscape="http://www.inkscape.org/namespaces/inkscape"
   version="1.1"
   id="Layer_1"
   x="0px"
   y="0px"
   viewBox="0 0 20.961819 21"
   xml:space="preserve"
   sodipodi:docname="search.svg"
   width="20.961819"
   height="21"
   inkscape:version="0.92.4 (5da689c313, 2019-01-14)"><metadata
   id="metadata1513"><rdf:RDF><cc:Work
       rdf:about=""><dc:format>image/svg+xml</dc:format><dc:type
         rdf:resource="http://purl.org/dc/dcmitype/StillImage" /><dc:title></dc:title></cc:Work></rdf:RDF></metadata><defs
   id="defs1511" /><sodipodi:namedview
   pagecolor="#ffffff"
   bordercolor="#666666"
   borderopacity="1"
   objecttolerance="10"
   gridtolerance="10"
   guidetolerance="10"
   inkscape:pageopacity="0"
   inkscape:pageshadow="2"
   inkscape:window-width="1850"
   inkscape:window-height="1016"
   id="namedview1509"
   showgrid="false"
   fit-margin-top="0"
   fit-margin-left="0"
   fit-margin-right="0"
   fit-margin-bottom="0"
   inkscape:zoom="1"
   inkscape:cx="-52.1"
   inkscape:cy="1.5526411"
   inkscape:window-x="70"
   inkscape:window-y="27"
   inkscape:window-maximized="1"
   inkscape:current-layer="Layer_1" />
<style
   type="text/css"
   id="style1504">
	.st0{fill:#333333;}
</style>
<g
   id="XMLID_2_"
   style="fill:#ffffff"
   transform="matrix(0.38181818,0,0,0.38181818,-7.8654545,-7.8654545)">
	<path
   id="XMLID_6_"
   class="st0"
   d="M 58.6,43.8 C 58.6,39.7 57.2,36.2 54.3,33.3 51.4,30.4 47.9,29 43.8,29 c -4.1,0 -7.6,1.4 -10.5,4.3 -2.9,2.9 -4.3,6.4 -4.3,10.5 0,4.1 1.4,7.6 4.3,10.5 2.9,2.9 6.4,4.3 10.5,4.3 4.1,0 7.6,-1.4 10.5,-4.3 2.8,-3 4.3,-6.5 4.3,-10.5 z m 16.9,27.5 c 0,1.1 -0.4,2.1 -1.3,3 -0.9,0.9 -1.8,1.3 -3,1.3 -1.2,0 -2.2,-0.4 -3,-1.3 L 57,62.9 c -4,2.8 -8.4,4.1 -13.2,4.1 -3.2,0 -6.2,-0.6 -9,-1.8 -2.9,-1.2 -5.4,-2.9 -7.4,-5 -2,-2.1 -3.7,-4.6 -5,-7.4 -1.2,-2.9 -1.8,-5.9 -1.8,-9 0,-3.1 0.6,-6.2 1.8,-9 1.2,-2.9 2.9,-5.4 5,-7.4 2.1,-2 4.6,-3.7 7.4,-5 2.9,-1.2 5.9,-1.8 9,-1.8 3.1,0 6.2,0.6 9,1.8 2.9,1.2 5.4,2.9 7.4,5 2,2.1 3.7,4.6 5,7.4 1.2,2.9 1.8,5.9 1.8,9 0,4.8 -1.4,9.2 -4.1,13.2 l 11.3,11.3 c 0.9,0.8 1.3,1.8 1.3,3 z"
   style="fill:#ffffff"
   inkscape:connector-curvature="0" />
</g>
</svg>