<svg xmlns="http://www.w3.org/2000/svg" width="20.962" height="21" xmlns:v="https://vecta.io/nano"><path d="M14.508 8.857c0-1.565-.535-2.902-1.642-4.009s-2.444-1.642-4.009-1.642-2.902.535-4.009 1.642-1.642 2.444-1.642 4.009.535 2.902 1.642 4.009 2.444 1.642 4.009 1.642 2.902-.535 4.009-1.642c1.069-1.145 1.642-2.482 1.642-4.009zm6.452 10.499c0 .42-.153.802-.496 1.145s-.687.496-1.145.496a1.45 1.45 0 0 1-1.145-.496l-4.276-4.353c-1.527 1.069-3.207 1.565-5.04 1.565a8.63 8.63 0 0 1-3.436-.687c-1.107-.458-2.062-1.107-2.825-1.909a10.51 10.51 0 0 1-1.909-2.825C.229 11.186 0 10.041 0 8.857S.229 6.49.687 5.421c.458-1.107 1.107-2.062 1.909-2.825A10.51 10.51 0 0 1 5.421.687C6.528.229 7.674 0 8.857 0s2.367.229 3.436.687c1.107.458 2.062 1.107 2.825 1.909a10.51 10.51 0 0 1 1.909 2.825c.458 1.107.687 2.253.687 3.436 0 1.833-.535 3.513-1.565 5.04l4.314 4.314a1.45 1.45 0 0 1 .496 1.145z" fill="#fff"/></svg>