<svg xmlns="http://www.w3.org/2000/svg" fill="#aaaaaa" width="68" height="68" viewBox="0 0 53.125 53.125" xmlns:v="https://vecta.io/nano"><g stroke="#aaa" stroke-width="3.125"><use href="#B"/><use href="#B" x="33.333" y="-16.667"/><use href="#B" x="33.333" y="16.667"/><path d="M16.574 28.038l21.467 10.733-1.492 2.98-21.467-10.733zm19.977-16.667l1.49 2.983-21.467 10.73-1.49-2.983z"/></g><defs ><path id="B" d="M9.896 34.896a8.25 8.25 0 0 1-8.333-8.333 8.25 8.25 0 0 1 8.333-8.333 8.25 8.25 0 0 1 8.333 8.333 8.25 8.25 0 0 1-8.333 8.333zm0-13.333c-2.833 0-5 2.167-5 5s2.167 5 5 5 5-2.167 5-5-2.167-5-5-5z"/></defs></svg>