<svg xmlns="http://www.w3.org/2000/svg" xmlns:xlink="http://www.w3.org/1999/xlink" width="235.507" height="40.792" viewBox="0 0 62.312 10.793" xmlns:v="https://vecta.io/nano"><g fill="#fc0" stroke="#333"><rect width="12.51" height="8.769" x=".815" y=".859" rx="2.058" paint-order="normal" stroke-width=".684"/><rect width="12.654" height="8.95" x=".397" y=".397" rx="2.058" paint-order="normal" stroke-width=".794"/></g><g fill="#333"><path d="M10.212 9.062H3.308V6.59c0-2.608 1.163-3.912 3.49-3.912 2.275 0 3.414 1.279 3.414 3.837zm-.967-.116V6.514c0-1.757-.667-2.736-2.002-2.939.519.252.778.804.778 1.654 0 .514-.184 1.128-.552 1.843s-.903 1.339-1.624 1.873zM6.941 5.154c0-1.037-.302-1.556-.907-1.556-.399 0-.796.259-1.193.778s-.589 1.231-.589 2.137V8.87c1.792-1.143 2.689-2.381 2.689-3.715zm12.616 3.594q-.722 0-1.274-.365-.552-.368-.864-1.037-.312-.673-.312-1.59 0-.91.312-1.578.312-.669.868-1.034.556-.365 1.285-.365.564 0 .891.188.331.184.504.421.177.233.274.383h.075V.931h.887v7.697h-.857v-.887h-.105q-.098.158-.278.398-.18.237-.515.425-.334.184-.891.184zm.12-.797q.534 0 .902-.278.368-.282.56-.778.192-.5.192-1.154 0-.646-.188-1.131-.188-.489-.556-.759-.368-.274-.91-.274-.564 0-.94.289-.372.286-.56.778-.184.489-.184 1.097 0 .616.188 1.12.192.5.564.797.376.293.932.293zm4.27.677V2.855h.887v5.773zm.451-6.735q-.259 0-.447-.177-.184-.177-.184-.425 0-.248.184-.425.188-.177.447-.177.259 0 .443.177.188.177.188.425 0 .248-.188.425-.184.177-.443.177zm4.405 6.855q-.812 0-1.398-.383-.586-.383-.902-1.056-.316-.673-.316-1.537 0-.879.323-1.552.327-.676.91-1.056.586-.383 1.368-.383.609 0 1.097.225.489.225.801.631.312.406.387.947h-.887q-.101-.395-.451-.699-.346-.308-.932-.308-.519 0-.91.271-.387.267-.605.755-.214.485-.214 1.139 0 .669.21 1.165.214.496.601.77.391.274.917.274.346 0 .628-.12.282-.12.477-.346.195-.225.278-.541h.887q-.075.511-.372.921-.293.406-.778.646-.481.237-1.12.237zm6.073-5.893v.752h-2.992v-.752zm-2.12-1.383h.887v5.502q0 .376.109.564.113.184.286.248.177.06.372.06.147 0 .241-.015.094-.019.15-.03l.18.797q-.09.034-.252.068-.162.038-.41.038-.376 0-.737-.162-.357-.162-.594-.492-.233-.331-.233-.834zm3.458 9.321V2.855h.857v.917h.105q.098-.15.271-.383.177-.237.504-.421.331-.188.894-.188.729 0 1.285.365.556.365.868 1.034.312.669.312 1.578 0 .917-.312 1.59-.312.669-.864 1.037-.552.365-1.274.365-.556 0-.891-.184-.334-.188-.515-.425-.18-.241-.278-.398h-.075v3.052zm.872-5.051q0 .654.192 1.154.192.496.56.778.368.278.902.278.556 0 .928-.293.376-.297.564-.797.192-.504.192-1.12 0-.609-.188-1.097-.184-.492-.56-.778-.372-.289-.936-.289-.541 0-.91.274-.368.271-.556.759-.188.485-.188 1.131zm5.577 2.886V2.855h.857v.872h.06q.158-.428.571-.695.413-.267.932-.267.098 0 .244.004.147.004.222.011v.902q-.045-.011-.207-.034-.158-.026-.334-.026-.421 0-.752.177-.327.173-.519.481-.188.304-.188.695v3.653zm6.179.12q-.834 0-1.439-.368-.601-.372-.928-1.037-.323-.669-.323-1.556 0-.887.323-1.563.327-.68.91-1.06.586-.383 1.368-.383.451 0 .891.15.44.15.801.489.361.334.575.887.214.552.214 1.361v.376h-4.45v-.767h3.548q0-.489-.195-.872-.192-.383-.549-.605-.353-.222-.834-.222-.53 0-.917.263-.383.259-.59.676-.207.417-.207.894v.511q0 .654.225 1.109.229.451.635.688.406.233.943.233.35 0 .631-.098.286-.101.492-.301.207-.203.319-.504l.857.241q-.135.436-.455.767-.319.327-.789.511-.47.18-1.056.18z"/><use xlink:href="#B"/><use xlink:href="#B" x="5.532"/></g><defs ><path id="B" d="M56.674 4.148l-.797.225q-.075-.199-.222-.387-.143-.192-.391-.316-.248-.124-.635-.124-.53 0-.883.244-.35.241-.35.613 0 .331.241.522.241.192.752.319l.857.21q.774.188 1.154.575.38.383.38.988 0 .496-.286.887-.282.391-.789.616-.507.225-1.18.225-.883 0-1.462-.383-.579-.383-.733-1.12l.842-.21q.12.466.455.699.338.233.883.233.62 0 .985-.263.368-.267.368-.639 0-.301-.21-.504-.21-.207-.646-.308l-.962-.225q-.793-.188-1.165-.583-.368-.398-.368-.996 0-.489.274-.864.278-.376.755-.59.481-.214 1.09-.214.857 0 1.345.376.492.376.699.992z"/></defs></svg>