<svg xmlns="http://www.w3.org/2000/svg" xmlns:xlink="http://www.w3.org/1999/xlink" width="183" height="38" viewBox="0 0 48.419 10.054" xmlns:v="https://vecta.io/nano"><g fill="#222"><path d="M17.597 2.337q1.256 0 2.009.574.76.566.76 2.086 0 1.489-.744 2.102-.737.605-1.892.605h-1.535V2.337zm-.264.838v3.691h.465q.659 0 1.016-.403.364-.411.364-1.466 0-.729-.186-1.132-.178-.403-.481-.543-.302-.147-.737-.147zm4.98.418v4.11h-1.101v-4.11zm-.558-2.117q.295 0 .481.186.194.178.194.458 0 .279-.194.465-.186.178-.481.178-.295 0-.481-.178-.186-.186-.186-.465 0-.279.186-.458.186-.186.481-.186zm3.357 1.993q.411 0 .737.124.333.116.628.372l-.481.651q-.202-.155-.396-.225-.186-.07-.411-.07-.876 0-.876 1.349 0 .682.225.977.225.295.644.295.217 0 .396-.062.178-.07.419-.225l.481.69q-.589.481-1.349.481-.605 0-1.055-.264-.442-.264-.682-.744-.24-.489-.24-1.14 0-.651.24-1.148.24-.504.682-.783.45-.279 1.039-.279zm4.451 4.04q-.225.155-.512.233-.279.085-.558.085-.636-.008-.962-.364-.326-.357-.326-1.047V4.369h-.613v-.776h.613v-.9l1.101-.132v1.031h.946l-.109.776h-.838v2.024q0 .295.101.427.101.132.31.132.209 0 .465-.14zm2.172-5.172q1.047 0 1.621.434.582.434.582 1.295 0 .9-.574 1.357-.574.45-1.535.45h-.613v1.83h-1.14V2.337zm0 2.699q.496 0 .76-.225.264-.225.264-.744 0-.907-1.039-.907h-.504v1.877zm4.901-1.559q.186 0 .411.062l-.186 1.062q-.217-.054-.364-.054-.364 0-.566.256-.202.256-.318.776v2.125h-1.101v-4.11h.954l.101.799q.147-.434.427-.675.287-.24.644-.24zm4.195 2.078q0 .078-.023.427h-2.567q.054.558.302.791.248.233.675.233.264 0 .496-.085.233-.085.504-.271l.458.62q-.69.558-1.559.558-.969 0-1.489-.582-.52-.582-.52-1.574 0-.628.217-1.124.225-.504.644-.791.427-.287 1.008-.287.876 0 1.365.551.489.551.489 1.535zm-1.093-.31q0-1.024-.737-1.024-.341 0-.535.256-.186.248-.225.814h1.497z"/><use xlink:href="#B"/><use xlink:href="#B" x="3.653"/></g><g stroke="#0a4"><g stroke-width="1.058"><rect width="11.425" height="8.009" x="1.097" y="1.402" rx="2.058" fill="#0a4" paint-order="normal"/><rect width="11.557" height="8.174" x=".661" y=".755" rx="2.058" fill="#fff" paint-order="normal"/></g><path d="M3.32 8.58h6.305V6.322c0-2.382-1.062-3.573-3.187-3.573-2.078 0-3.118 1.168-3.118 3.504zm.883-.106V6.253c0-1.605.609-2.499 1.828-2.684-.474.23-.711.734-.711 1.511 0 .469.168 1.03.504 1.683s.825 1.223 1.483 1.711zm2.104-3.463c0-.947.276-1.421.828-1.421.364 0 .727.237 1.09.711s.538 1.124.538 1.952v2.152C7.126 7.361 6.307 6.23 6.307 5.012z" fill="#0a4" stroke-width=".159"/></g><defs ><path id="B" d="M42.995 3.469q.869 0 1.489.496l-.419.628q-.52-.326-1.024-.326-.271 0-.419.101-.147.101-.147.271 0 .124.062.209.07.085.248.163.186.078.551.186.651.178.969.481.318.295.318.814 0 .411-.24.713-.233.302-.636.465-.403.155-.9.155-.52 0-.946-.155-.427-.163-.729-.442l.543-.605q.52.403 1.101.403.31 0 .489-.116.186-.124.186-.333 0-.163-.07-.256-.07-.093-.256-.171-.186-.085-.582-.194-.62-.171-.923-.481-.295-.318-.295-.783 0-.349.202-.628.202-.279.566-.434.372-.163.861-.163z"/></defs></svg>