<svg xmlns="http://www.w3.org/2000/svg" width="182.02" height="39.225" viewBox="0 0 48.16 10.378" xmlns:v="https://vecta.io/nano"><g fill="#222"><path d="M14.856 6.712h.683V4.581h-.683zm-.765 1.494v-.73h-.724V3.816h.724v-.724h1.448V.92h1.489v7.286zm-.683-5.091h.683v.701h-.683zm-.041 4.361h.724v.73h-.724zM19.2 2.409h-1.489V.92H19.2zm0 5.798h-1.489V3.092H19.2zm1.407 0v-.73h-.724V3.816h.724v-.724h2.213v.724h.724v1.489h-1.489v-.724h-.683v2.131h.683v-.724h1.489v1.489h-.724v.73zm-.683-5.091h.724v.724h-.724zm2.896 0h.724v.701h-.724zm0 4.361h.724v.707h-.724zm-2.937 0h.724v.73h-.724zm5.068.73v-.73h-.724V1.644h1.489v1.448h1.448v1.489h-1.448v2.131h1.448v1.494zm-.724-.73h.724v.73h-.724zm5.109-2.896v2.131h.683V4.581zm0 5.798h-1.489V3.092h2.937v.724h.724v3.661h-.724v.73h-1.448zm1.448-7.286h.724v.724h-.724zm0 4.367h.724v.747h-.724zm2.896.747h-1.489V3.092h2.937v1.489H33.68zm3.62-3.626v.683h.683v-.683zm-.765 3.626v-.73h-.724V3.816h.724v-.724h2.213v.724h.724v2.213H37.3v.683h2.172v1.494zm-.683-5.091h.683v.701h-.683zm2.896-.023h.724v.724h-.724zm-2.937 4.385h.724v.73h-.724zm7.281.73h-2.937V6.712h2.172v-.683H40.88v-.724h-.724V3.816h.724v-.724h2.937v1.489h-2.172v.683h1.448v.724h.724v1.489h-.724zm-2.896-5.091h.683v.701h-.683zm0 2.172h.683v.741h-.683zm2.896-.023h.724v.724h-.724zm0 2.213h.724v.707h-.724zm4.344.73H44.5V6.712h2.172v-.683h-1.448v-.724H44.5V3.816h.724v-.724h2.937v1.489h-2.172v.683h1.448v.724h.724v1.489h-.724zM44.54 3.115h.683v.701h-.683zm0 2.172h.683v.741h-.683zm2.896-.023h.724v.724h-.724zm0 2.213h.724v.707h-.724z"/><rect width="10.891" height="8.985" x=".022" y="1.33" paint-order="normal" rx="1.848"/></g><rect width="9.461" height="8.035" x=".356" y=".356" rx="1.848" paint-order="normal" stroke-width=".713" fill="#fc0" stroke="#222"/></svg>