<?xml version="1.0" encoding="UTF-8" standalone="no"?>
<svg
   xmlns:dc="http://purl.org/dc/elements/1.1/"
   xmlns:cc="http://creativecommons.org/ns#"
   xmlns:rdf="http://www.w3.org/1999/02/22-rdf-syntax-ns#"
   xmlns:svg="http://www.w3.org/2000/svg"
   xmlns="http://www.w3.org/2000/svg"
   xmlns:sodipodi="http://sodipodi.sourceforge.net/DTD/sodipodi-0.dtd"
   xmlns:inkscape="http://www.inkscape.org/namespaces/inkscape"
   width="235.50745"
   height="40.79171"
   viewBox="0 0 62.311669 10.792627"
   version="1.1"
   id="svg933"
   sodipodi:docname="logo.svg"
   inkscape:version="1.0.2 (e86c870879, 2021-01-15)">
  <metadata
     id="metadata937">
    <rdf:RDF>
      <cc:Work
         rdf:about="">
        <dc:format>image/svg+xml</dc:format>
        <dc:type
           rdf:resource="http://purl.org/dc/dcmitype/StillImage" />
        <dc:title></dc:title>
      </cc:Work>
    </rdf:RDF>
  </metadata>
  <sodipodi:namedview
     pagecolor="#ffffff"
     bordercolor="#666666"
     borderopacity="1"
     objecttolerance="10"
     gridtolerance="10"
     guidetolerance="10"
     inkscape:pageopacity="0"
     inkscape:pageshadow="2"
     inkscape:window-width="2048"
     inkscape:window-height="1079"
     id="namedview935"
     showgrid="false"
     inkscape:zoom="1"
     inkscape:cx="44.9233"
     inkscape:cy="19.160029"
     inkscape:window-x="0"
     inkscape:window-y="0"
     inkscape:window-maximized="1"
     inkscape:current-layer="svg933"
     fit-margin-top="0"
     fit-margin-left="0"
     fit-margin-right="0"
     fit-margin-bottom="0"
     inkscape:document-rotation="0" />
  <defs
     id="defs931">
    <path
       id="B"
       d="m 42.995,3.469 q 0.869,0 1.489,0.496 l -0.419,0.628 q -0.52,-0.326 -1.024,-0.326 -0.271,0 -0.419,0.101 -0.147,0.101 -0.147,0.271 0,0.124 0.062,0.209 0.07,0.085 0.248,0.163 0.186,0.078 0.551,0.186 0.651,0.178 0.969,0.481 0.318,0.295 0.318,0.814 0,0.411 -0.24,0.713 -0.233,0.302 -0.636,0.465 -0.403,0.155 -0.9,0.155 -0.52,0 -0.946,-0.155 -0.427,-0.163 -0.729,-0.442 l 0.543,-0.605 q 0.52,0.403 1.101,0.403 0.31,0 0.489,-0.116 0.186,-0.124 0.186,-0.333 0,-0.163 -0.07,-0.256 Q 43.351,6.228 43.165,6.15 42.979,6.065 42.583,5.956 41.963,5.785 41.66,5.475 41.365,5.157 41.365,4.692 q 0,-0.349 0.202,-0.628 0.202,-0.279 0.566,-0.434 0.372,-0.163 0.861,-0.163 z" />
  </defs>
  <text
     xml:space="preserve"
     style="font-weight:500;font-size:10.5834px;line-height:1.25;font-family:Roboto;-inkscape-font-specification:'Roboto Medium';stroke-width:0.264585"
     x="19.736286"
     y="43.171227"
     id="text1119"><tspan
       sodipodi:role="line"
       id="tspan1117"
       x="19.736286"
       y="43.171227"
       style="stroke-width:0.264585" /></text>
  <rect
     width="12.509547"
     height="8.7692728"
     x="0.81482685"
     y="0.8591122"
     rx="2.0580001"
     fill="#00aa44"
     paint-order="normal"
     id="rect895"
     ry="2.0580001"
     style="fill:#ffcc00;stroke:#333333;stroke-width:0.683855;stroke-miterlimit:4;stroke-dasharray:none" />
  <rect
     width="12.654077"
     height="8.949935"
     x="0.39687699"
     y="0.39675915"
     rx="2.0580001"
     fill="#ffffff"
     paint-order="normal"
     id="rect897"
     ry="2.0580001"
     style="fill:#ffcc00;stroke:#333333;stroke-width:0.793754;stroke-miterlimit:4;stroke-dasharray:none" />
  <path
     d="M 10.211801,9.0620275 H 3.3082843 V 6.5896822 c 0,-2.6081175 1.1628113,-3.912175 3.4895332,-3.912175 2.2752596,0 3.4139835,1.2788752 3.4139835,3.8366257 z M 9.2449811,8.9459636 V 6.5141305 c 0,-1.7573579 -0.6668114,-2.7362233 -2.0015283,-2.938786 0.5189962,0.2518348 0.7784936,0.8036759 0.7784936,1.6544366 0,0.5135208 -0.183947,1.1277756 -0.5518434,1.8427618 C 7.1022066,7.7875292 6.5667868,8.4116386 5.8463264,8.9459636 Z M 6.9412522,5.1542307 c 0,-1.0368963 -0.3022006,-1.5558936 -0.9065983,-1.5558936 -0.3985541,0 -0.7960142,0.2594987 -1.1934723,0.7784936 C 4.4437224,4.895828 4.2521104,5.607531 4.2521104,6.5141305 V 8.8704131 C 6.0445062,7.7273088 6.9412522,6.488947 6.9412522,5.1553255 Z"
     fill="#00aa44"
     stroke-width="0.246828"
     id="path899"
     style="fill:#333333;stroke:none;stroke-width:0.683855;stroke-miterlimit:4;stroke-dasharray:none" />
  <g
     aria-label="dictpress"
     id="text1021"
     style="font-weight:500;font-size:10.5834px;line-height:1.25;font-family:Roboto;-inkscape-font-specification:'Roboto Medium';fill:#333333;stroke-width:0.264585">
    <path
       d="m 19.557239,8.7482252 q -0.721596,0 -1.274067,-0.3645561 -0.552472,-0.3683143 -0.864411,-1.0372934 -0.31194,-0.6727374 -0.31194,-1.589765 0,-0.9095109 0.31194,-1.57849 0.311939,-0.6689791 0.868169,-1.0335351 0.55623,-0.3645561 1.285342,-0.3645561 0.563746,0 0.890719,0.1879155 0.330732,0.1841572 0.503614,0.4209307 0.17664,0.2330152 0.274356,0.3833476 h 0.07517 V 0.93094123 h 0.886961 V 8.6279593 H 21.346194 V 7.7409982 h -0.105233 q -0.09772,0.157849 -0.278115,0.3983808 -0.180398,0.2367735 -0.514888,0.424689 -0.33449,0.1841572 -0.890719,0.1841572 z m 0.120266,-0.7967617 q 0.53368,0 0.901994,-0.2781149 0.368314,-0.2818732 0.559988,-0.7779701 0.191674,-0.4998551 0.191674,-1.153801 0,-0.6464293 -0.187916,-1.1312512 -0.187915,-0.4885802 -0.55623,-0.7591785 -0.368314,-0.2743566 -0.90951,-0.2743566 -0.563747,0 -0.939578,0.2893898 -0.372072,0.2856315 -0.559988,0.7779701 -0.184157,0.4885802 -0.184157,1.0974264 0,0.6163628 0.187915,1.1199762 0.191674,0.4998552 0.563747,0.7967617 0.375831,0.2931481 0.932061,0.2931481 z"
       style="font-style:normal;font-variant:normal;font-weight:normal;font-stretch:normal;font-family:Inter;-inkscape-font-specification:Inter;fill:#333333;stroke-width:0.264585"
       id="path1023" />
    <path
       d="M 23.946928,8.6279593 V 2.8551957 h 0.886961 v 5.7727636 z m 0.450997,-6.7348908 q -0.259324,0 -0.447239,-0.1766406 -0.184157,-0.1766405 -0.184157,-0.4246889 0,-0.2480485 0.184157,-0.42468903 0.187915,-0.17664055 0.447239,-0.17664055 0.259323,0 0.44348,0.17664055 0.187916,0.17664053 0.187916,0.42468903 0,0.2480484 -0.187916,0.4246889 -0.184157,0.1766406 -0.44348,0.1766406 z"
       style="font-style:normal;font-variant:normal;font-weight:normal;font-stretch:normal;font-family:Inter;-inkscape-font-specification:Inter;fill:#333333;stroke-width:0.264585"
       id="path1025" />
    <path
       d="m 28.802655,8.7482252 q -0.811795,0 -1.398091,-0.3833476 Q 26.818267,7.98153 26.502569,7.3087926 26.186871,6.6360552 26.186871,5.771644 q 0,-0.8794445 0.323215,-1.5521819 0.326973,-0.6764957 0.909511,-1.056085 0.586296,-0.3833476 1.368025,-0.3833476 0.608846,0 1.097426,0.2254986 0.48858,0.2254986 0.80052,0.631396 0.31194,0.4058975 0.387106,0.947094 H 30.185713 Q 30.084238,4.1893956 29.734716,3.8849726 29.388951,3.5767912 28.802655,3.5767912 q -0.518647,0 -0.909511,0.2705983 -0.387106,0.2668399 -0.605088,0.7554202 -0.214224,0.4848219 -0.214224,1.1387678 0,0.6689791 0.210466,1.165076 0.214223,0.4960968 0.601329,0.7704534 0.390864,0.2743566 0.917028,0.2743566 0.345764,0 0.627637,-0.1202659 0.281874,-0.1202659 0.477306,-0.3457645 0.195432,-0.2254985 0.278115,-0.5411965 h 0.886961 q -0.07517,0.5111301 -0.372073,0.9207858 -0.293148,0.4058974 -0.77797,0.6464293 -0.481064,0.2367735 -1.119976,0.2367735 z"
       style="font-style:normal;font-variant:normal;font-weight:normal;font-stretch:normal;font-family:Inter;-inkscape-font-specification:Inter;fill:#333333;stroke-width:0.264585"
       id="path1027" />
    <path
       d="m 34.876066,2.8551957 v 0.751662 H 31.884452 V 2.8551957 Z M 32.75638,1.4721378 h 0.886961 V 6.974303 q 0,0.375831 0.108991,0.5637465 0.112749,0.1841571 0.285631,0.2480484 0.176641,0.060133 0.372073,0.060133 0.146574,0 0.240532,-0.015033 0.09396,-0.018792 0.150332,-0.030067 l 0.180399,0.7967617 q -0.0902,0.033825 -0.251807,0.067649 -0.161607,0.037583 -0.409656,0.037583 -0.375831,0 -0.736628,-0.1616073 Q 33.226168,8.3799108 32.989395,8.0491796 32.75638,7.7184483 32.75638,7.2148348 Z"
       style="font-style:normal;font-variant:normal;font-weight:normal;font-stretch:normal;font-family:Inter;-inkscape-font-specification:Inter;fill:#333333;stroke-width:0.264585"
       id="path1029" />
    <path
       d="M 36.21402,10.792746 V 2.8551957 h 0.856895 v 0.9170276 h 0.105233 q 0.09772,-0.1503324 0.270598,-0.3833476 0.17664,-0.2367735 0.503613,-0.4209307 0.330732,-0.1879155 0.894478,-0.1879155 0.729112,0 1.285342,0.3645561 0.55623,0.364556 0.868169,1.0335351 0.31194,0.6689791 0.31194,1.57849 0,0.9170276 -0.31194,1.589765 -0.311939,0.6689791 -0.864411,1.0372934 -0.552471,0.3645561 -1.274067,0.3645561 -0.55623,0 -0.890719,-0.1841572 Q 37.634661,8.3761525 37.454263,8.139379 37.273864,7.8988472 37.176148,7.7409982 h -0.07517 v 3.0517478 z m 0.871928,-5.0511685 q 0,0.6539459 0.191674,1.153801 0.191674,0.4960969 0.559988,0.7779701 0.368314,0.2781149 0.901994,0.2781149 0.55623,0 0.928303,-0.2931481 0.375831,-0.2969065 0.563746,-0.7967617 0.191674,-0.5036134 0.191674,-1.1199762 0,-0.6088462 -0.187915,-1.0974264 Q 40.051254,4.1518125 39.675423,3.866181 39.303351,3.5767912 38.739604,3.5767912 q -0.541196,0 -0.909511,0.2743566 -0.368314,0.2705983 -0.556229,0.7591785 -0.187916,0.4848219 -0.187916,1.1312512 z"
       style="font-style:normal;font-variant:normal;font-weight:normal;font-stretch:normal;font-family:Inter;-inkscape-font-specification:Inter;fill:#333333;stroke-width:0.264585"
       id="path1031" />
    <path
       d="M 42.66326,8.6279593 V 2.8551957 h 0.856895 v 0.8719279 h 0.06013 q 0.157849,-0.4284473 0.571263,-0.6952873 0.413414,-0.26684 0.93206,-0.26684 0.09772,0 0.244291,0.00376 0.146574,0.00376 0.22174,0.011275 v 0.9019943 q -0.0451,-0.011275 -0.206707,-0.033825 -0.157849,-0.026308 -0.33449,-0.026308 -0.42093,0 -0.751662,0.1766405 -0.326973,0.1728823 -0.518646,0.4810637 -0.187916,0.304423 -0.187916,0.6952872 v 3.653077 z"
       style="font-style:normal;font-variant:normal;font-weight:normal;font-stretch:normal;font-family:Inter;-inkscape-font-specification:Inter;fill:#333333;stroke-width:0.264585"
       id="path1033" />
    <path
       d="m 48.841905,8.7482252 q -0.834345,0 -1.439433,-0.3683144 Q 46.801143,8.0078382 46.47417,7.3426174 46.150955,6.6736383 46.150955,5.7866772 q 0,-0.8869611 0.323215,-1.5634568 0.326973,-0.680254 0.90951,-1.0598433 0.586297,-0.3833476 1.368025,-0.3833476 0.450997,0 0.89072,0.1503324 0.439722,0.1503324 0.800519,0.4885803 0.360798,0.3344895 0.575022,0.886961 0.214224,0.5524715 0.214224,1.3605081 v 0.375831 H 46.782351 V 5.2755471 h 3.547844 q 0,-0.4885802 -0.195432,-0.8719278 Q 49.943089,4.0202717 49.58605,3.7985314 49.232769,3.5767912 48.751705,3.5767912 q -0.529921,0 -0.917027,0.2630816 -0.383348,0.2593234 -0.590055,0.6764958 -0.206707,0.4171723 -0.206707,0.8944777 v 0.5111301 q 0,0.6539458 0.225499,1.1087013 0.229256,0.4509971 0.635154,0.6877706 0.405897,0.2330152 0.943336,0.2330152 0.349522,0 0.631396,-0.097716 0.285631,-0.1014744 0.492338,-0.3006648 0.206707,-0.2029487 0.319456,-0.5036135 L 51.14199,7.290001 Q 51.006691,7.725965 50.687235,8.0566962 50.367778,8.3836691 49.89799,8.5678263 49.428201,8.7482252 48.841905,8.7482252 Z"
       style="font-style:normal;font-variant:normal;font-weight:normal;font-stretch:normal;font-family:Inter;-inkscape-font-specification:Inter;fill:#333333;stroke-width:0.264585"
       id="path1035" />
    <path
       d="M 56.674216,4.1480542 55.877454,4.3735528 Q 55.802288,4.1743624 55.655714,3.9864469 55.512898,3.7947731 55.26485,3.6707489 55.016801,3.5467247 54.629696,3.5467247 q -0.529922,0 -0.883203,0.2442901 -0.349523,0.2405318 -0.349523,0.6126045 0,0.3307312 0.240532,0.522405 0.240532,0.1916738 0.751662,0.3194563 l 0.856894,0.2104654 q 0.774212,0.1879154 1.153801,0.5750213 0.37959,0.3833476 0.37959,0.9884355 0,0.4960968 -0.285632,0.886961 -0.281873,0.3908642 -0.789245,0.6163628 -0.507372,0.2254986 -1.180109,0.2254986 -0.883203,0 -1.461983,-0.3833476 Q 52.483701,7.98153 52.32961,7.2449013 L 53.171471,7.034436 q 0.120266,0.4660304 0.454756,0.6990456 0.338248,0.2330152 0.883203,0.2330152 0.620121,0 0.984677,-0.2630817 0.368314,-0.26684 0.368314,-0.6389126 0,-0.3006648 -0.210465,-0.5036135 Q 55.44149,6.354182 55.005527,6.2527076 L 54.043399,6.027209 Q 53.250396,5.8392935 52.878323,5.444671 52.510009,5.0462902 52.510009,4.448719 q 0,-0.4885802 0.274357,-0.8644112 0.278114,-0.375831 0.75542,-0.5900546 0.481063,-0.2142237 1.08991,-0.2142237 0.856894,0 1.345474,0.375831 0.492339,0.375831 0.699046,0.9921937 z"
       style="font-style:normal;font-variant:normal;font-weight:normal;font-stretch:normal;font-family:Inter;-inkscape-font-specification:Inter;fill:#333333;stroke-width:0.264585"
       id="path1037" />
    <path
       d="M 62.206435,4.1480542 61.409673,4.3735528 Q 61.334507,4.1743624 61.187933,3.9864469 61.045117,3.7947731 60.797069,3.6707489 60.54902,3.5467247 60.161914,3.5467247 q -0.529921,0 -0.883202,0.2442901 -0.349523,0.2405318 -0.349523,0.6126045 0,0.3307312 0.240532,0.522405 0.240532,0.1916738 0.751662,0.3194563 l 0.856894,0.2104654 q 0.774212,0.1879154 1.153801,0.5750213 0.37959,0.3833476 0.37959,0.9884355 0,0.4960968 -0.285632,0.886961 -0.281873,0.3908642 -0.789245,0.6163628 -0.507372,0.2254986 -1.180109,0.2254986 -0.883203,0 -1.461983,-0.3833476 Q 58.01592,7.98153 57.861829,7.2449013 L 58.70369,7.034436 q 0.120266,0.4660304 0.454756,0.6990456 0.338248,0.2330152 0.883203,0.2330152 0.620121,0 0.984677,-0.2630817 0.368314,-0.26684 0.368314,-0.6389126 0,-0.3006648 -0.210465,-0.5036135 -0.210466,-0.206707 -0.64643,-0.3081814 L 59.575618,6.027209 Q 58.782615,5.8392935 58.410542,5.444671 58.042228,5.0462902 58.042228,4.448719 q 0,-0.4885802 0.274356,-0.8644112 0.278115,-0.375831 0.755421,-0.5900546 0.481063,-0.2142237 1.089909,-0.2142237 0.856895,0 1.345475,0.375831 0.492339,0.375831 0.699046,0.9921937 z"
       style="font-style:normal;font-variant:normal;font-weight:normal;font-stretch:normal;font-family:Inter;-inkscape-font-specification:Inter;fill:#333333;stroke-width:0.264585"
       id="path1039" />
  </g>
</svg>
